<svg xmlns="http://www.w3.org/2000/svg" xmlns:xlink="http://www.w3.org/1999/xlink" version="1.1" x="0px" y="0px" viewBox="0 0 100 125" style="enable-background:new 0 0 100 100;" xml:space="preserve"><path d="M57.6357422,68.2578125h4.6069336c0.5522461,0,1-0.4477539,1-1s-0.4477539-1-1-1h-4.6069336c-0.5522461,0-1,0.4477539-1,1  S57.0834961,68.2578125,57.6357422,68.2578125z"/><path d="M83.4580078,76.9257812c-3.6074219,0-6.5419922,2.9326172-6.5419922,6.5371094S79.8505859,90,83.4580078,90  S90,87.0673828,90,83.4628906S87.0654297,76.9257812,83.4580078,76.9257812z M83.4580078,88  c-2.5043945,0-4.5419922-2.0351562-4.5419922-4.5371094s2.0375977-4.5371094,4.5419922-4.5371094S88,80.9609375,88,83.4628906  S85.9624023,88,83.4580078,88z"/><path d="M21.2680664,23.0742188c3.6074219,0,6.5424805-2.9326172,6.5424805-6.5371094S24.8754883,10,21.2680664,10  s-6.5419922,2.9326172-6.5419922,6.5371094S17.6606445,23.0742188,21.2680664,23.0742188z M21.2680664,12  c2.5048828,0,4.5424805,2.0351562,4.5424805,4.5371094s-2.0375977,4.5371094-4.5424805,4.5371094  c-2.5043945,0-4.5419922-2.0351562-4.5419922-4.5371094S18.7636719,12,21.2680664,12z"/><path d="M16.5415039,90c3.6074219,0,6.5419922-2.9326172,6.5419922-6.5371094s-2.9345703-6.5371094-6.5419922-6.5371094  s-6.5419922,2.9326172-6.5419922,6.5371094S12.934082,90,16.5415039,90z M16.5415039,78.9257812  c2.5043945,0,4.5419922,2.0351562,4.5419922,4.5371094S19.0458984,88,16.5415039,88s-4.5419922-2.0351562-4.5419922-4.5371094  S14.0371094,78.9257812,16.5415039,78.9257812z"/><path d="M89,38.7739258h-2.9077148v-2.8691406c0-0.5522461-0.4477539-1-1-1s-1,0.4477539-1,1v2.8691406h-2.9077148  c-0.5522461,0-1,0.4477539-1,1s0.4477539,1,1,1h2.9077148v2.8691406c0,0.5522461,0.4477539,1,1,1s1-0.4477539,1-1v-2.8691406H89  c0.5522461,0,1-0.4477539,1-1S89.5522461,38.7739258,89,38.7739258z"/><path d="M11,35.8955078h2.9077148v2.8691406c0,0.5522461,0.4477539,1,1,1s1-0.4477539,1-1v-2.8691406h2.9077148  c0.5522461,0,1-0.4477539,1-1s-0.4477539-1-1-1h-2.9077148v-2.8691406c0-0.5522461-0.4477539-1-1-1s-1,0.4477539-1,1v2.8691406H11  c-0.5522461,0-1,0.4477539-1,1S10.4477539,35.8955078,11,35.8955078z"/><path d="M89.9511719,17.9799805c-0.109375-0.3359375-0.387207-0.5893555-0.7319336-0.6665039l-6.1748047-1.387207  l-3.2285156-5.4370117c-0.3603516-0.6064453-1.359375-0.6064453-1.7197266,0l-3.2285156,5.4370117l-6.1748047,1.387207  c-0.3447266,0.0771484-0.6225586,0.3305664-0.7319336,0.6665039c-0.1088867,0.3359375-0.0327148,0.7045898,0.2006836,0.9697266  l4.1787109,4.7475586l-0.5874023,6.293457c-0.0327148,0.3515625,0.1220703,0.6938477,0.4077148,0.9018555  c0.2861328,0.2075195,0.6591797,0.2485352,0.9833984,0.109375l5.8120117-2.503418l5.8120117,2.503418  c0.1269531,0.0546875,0.2617188,0.081543,0.3955078,0.081543c0.2080078,0,0.4140625-0.0649414,0.5878906-0.190918  c0.2856445-0.2080078,0.4404297-0.550293,0.4077148-0.9018555l-0.5874023-6.293457l4.1787109-4.7475586  C89.9838867,18.6845703,90.0600586,18.315918,89.9511719,17.9799805z M83.7856445,22.699707  c-0.1821289,0.206543-0.2709961,0.4794922-0.2451172,0.753418l0.4707031,5.0454102l-4.659668-2.0073242  c-0.1259766-0.0541992-0.2607422-0.081543-0.3955078-0.081543s-0.2695312,0.0273438-0.3955078,0.081543l-4.659668,2.0073242  l0.4707031-5.0454102c0.0258789-0.2739258-0.0629883-0.546875-0.2451172-0.753418l-3.3486328-3.8046875l4.9487305-1.1118164  c0.2685547-0.0600586,0.5-0.2285156,0.640625-0.4648438l2.5888672-4.3598633l2.5888672,4.3598633  c0.140625,0.2363281,0.3720703,0.4047852,0.640625,0.4648438l4.9487305,1.1118164L83.7856445,22.699707z"/><path d="M33.5922852,69.2568359l-0.6230469,6.6728516c-0.0327148,0.3510742,0.1220703,0.6938477,0.4077148,0.9018555  c0.2856445,0.2075195,0.6586914,0.2490234,0.9833984,0.109375l6.1621094-2.6542969l6.1621094,2.6542969  c0.1269531,0.0546875,0.2617188,0.081543,0.3955078,0.081543c0.2080078,0,0.4140625-0.0649414,0.5878906-0.190918  c0.2856445-0.2080078,0.4404297-0.5507812,0.4077148-0.9018555l-0.6230469-6.6728516l4.4306641-5.0332031  c0.2333984-0.2651367,0.3095703-0.6337891,0.2006836-0.9697266c-0.109375-0.3359375-0.387207-0.5893555-0.7319336-0.6665039  l-6.546875-1.4707031l-3.4228516-5.7651367c-0.3603516-0.6064453-1.359375-0.6064453-1.7197266,0l-3.4228516,5.7651367  l-6.546875,1.4707031c-0.3447266,0.0771484-0.6225586,0.3305664-0.7319336,0.6665039  c-0.1088867,0.3359375-0.0327148,0.7045898,0.2006836,0.9697266L33.5922852,69.2568359z M37.0986328,62.9736328  c0.2685547-0.0600586,0.5-0.2285156,0.640625-0.4648438l2.7832031-4.6879883l2.7832031,4.6879883  c0.140625,0.2363281,0.3720703,0.4047852,0.640625,0.4648438l5.3208008,1.1953125l-3.6005859,4.090332  c-0.1821289,0.206543-0.2709961,0.4794922-0.2451172,0.753418L45.9277344,74.4375l-5.0097656-2.1582031  c-0.1259766-0.0541992-0.2607422-0.081543-0.3955078-0.081543s-0.2695312,0.0273438-0.3955078,0.081543L35.1171875,74.4375  l0.5063477-5.4248047c0.0258789-0.2739258-0.0629883-0.546875-0.2451172-0.753418l-3.6005859-4.090332L37.0986328,62.9736328z"/><path d="M39.8115234,89.9458008C39.9160156,89.9819336,40.0253906,90,40.1357422,90h19.7285156  c0.1103516,0,0.2197266-0.0180664,0.3242188-0.0541992c12.6826172-4.3476562,21.2036133-16.2695312,21.2036133-29.6665039  c0-13.6513672-8.9990234-25.847168-21.9785156-29.9213867v-2.8793945c2.0043945-0.4570312,3.5048828-2.2641602,3.5048828-4.4804688  c0-2.4194946-1.921814-4.3848877-4.3168945-4.4859009v-5.7265015C58.6015625,11.2495117,57.3510742,10,55.8139648,10H44.0654297  c-1.5371094,0-2.7875977,1.2495117-2.7875977,2.7856445v5.7387695c-2.3378296,0.1621094-4.1962891,2.0991821-4.1962891,4.5615234  c0,2.140625,1.5004883,3.9370117,3.5048828,4.3930664v2.8789062c-12.9794922,4.0742188-21.9785156,16.2700195-21.9785156,29.9213867  C18.6079102,73.6762695,27.1289062,85.5981445,39.8115234,89.9458008z M43.277832,12.7856445  C43.277832,12.3525391,43.6313477,12,44.0654297,12h11.7485352c0.434082,0,0.7875977,0.3525391,0.7875977,0.7856445v5.7075195  H43.277832V12.7856445z M41.862793,32.0625c0.4282227-0.1230469,0.7236328-0.5151367,0.7236328-0.9609375v-4.5107422  c0-0.5522461-0.4477539-1-1-1c-1.3813477,0-2.5048828-1.1235352-2.5048828-2.5927734  c0-1.3813477,1.1235352-2.5048828,2.5048828-2.5048828h0.6889648c0.0008545,0,0.0015869,0.0004883,0.0024414,0.0004883  s0.0015869-0.0004883,0.0024414-0.0004883h15.3188477c0.0008545,0,0.0015869,0.0004883,0.0024414,0.0004883  s0.0015869-0.0004883,0.0024414-0.0004883h0.8095703c1.3813477,0,2.5048828,1.1235352,2.5048828,2.5927734  c0,1.3813477-1.1235352,2.5048828-2.5048828,2.5048828c-0.5522461,0-1,0.4477539-1,1v4.5107422  c0,0.4458008,0.2954102,0.8378906,0.7236328,0.9609375c7.3768311,2.1200562,13.4229126,7.0339966,17.15979,13.3676758H24.7030029  C28.4398804,39.0964966,34.4859619,34.1825562,41.862793,32.0625z M76.3760376,47.4301758  c1.3081055,2.6652222,2.2252808,5.5337524,2.6766968,8.5302734H61.3989258c-0.5522461,0-1,0.4477539-1,1s0.4477539,1,1,1h17.8963013  c0.0615234,0.7672119,0.0968628,1.5401001,0.0968628,2.3188477c0,2.0396118-0.2312012,4.036438-0.6356201,5.9785156h-10.06604  c-0.5522461,0-1,0.4477539-1,1s0.4477539,1,1,1h9.5748291c-0.8401489,2.9688721-2.135498,5.7637329-3.8262939,8.2973633H61.1147461  c-0.5522461,0-1,0.4477539-1,1s0.4477539,1,1,1h11.8681641C69.6054077,82.7958984,65.059082,86.1279907,59.6962891,88H40.3037109  c-11.7875977-4.1147461-19.6958008-15.2333984-19.6958008-27.7207031c0-4.5535278,1.0894165-8.9237061,3.0160522-12.8491211  H76.3760376z"/><text x="0" y="115" fill="#000000" font-size="5px" font-weight="bold" font-family="'Helvetica Neue', Helvetica, Arial-Unicode, Arial, Sans-serif">Created by Made</text><text x="0" y="120" fill="#000000" font-size="5px" font-weight="bold" font-family="'Helvetica Neue', Helvetica, Arial-Unicode, Arial, Sans-serif">from the Noun Project</text></svg>