<svg xmlns="http://www.w3.org/2000/svg" xmlns:xlink="http://www.w3.org/1999/xlink" version="1.1" x="0px" y="0px" viewBox="0 0 100 125" enable-background="new 0 0 100 100" xml:space="preserve"><g><path d="M65.7,71.7c0.7,0,1.3-0.6,1.3-1.3s-0.6-1.3-1.3-1.3s-1.3,0.6-1.3,1.3S65,71.7,65.7,71.7z M65.7,69.8c0.3,0,0.5,0.2,0.5,0.5   s-0.2,0.5-0.5,0.5s-0.5-0.2-0.5-0.5S65.4,69.8,65.7,69.8z"/><path d="M71.3,75.8c0.7,0,1.3-0.6,1.3-1.3s-0.6-1.3-1.3-1.3c-0.7,0-1.3,0.6-1.3,1.3S70.6,75.8,71.3,75.8z M71.3,73.9   c0.3,0,0.5,0.2,0.5,0.5S71.6,75,71.3,75s-0.5-0.2-0.5-0.5S71,73.9,71.3,73.9z"/><path d="M65.7,78.2c0,0.7,0.6,1.3,1.3,1.3s1.3-0.6,1.3-1.3s-0.6-1.3-1.3-1.3S65.7,77.4,65.7,78.2z M67.6,78.2   c0,0.3-0.2,0.5-0.5,0.5s-0.5-0.2-0.5-0.5s0.2-0.5,0.5-0.5S67.6,77.9,67.6,78.2z"/><path d="M71.6,80c0,0.7,0.6,1.3,1.3,1.3s1.3-0.6,1.3-1.3s-0.6-1.3-1.3-1.3S71.6,79.3,71.6,80z M72.9,79.5c0.3,0,0.5,0.2,0.5,0.5   c0,0.3-0.2,0.5-0.5,0.5s-0.5-0.2-0.5-0.5C72.4,79.7,72.6,79.5,72.9,79.5z"/><path d="M33.5,65.2c-0.7,0-1.3,0.6-1.3,1.3s0.6,1.3,1.3,1.3s1.3-0.6,1.3-1.3S34.2,65.2,33.5,65.2z M33.5,67.1   c-0.3,0-0.5-0.2-0.5-0.5c0-0.3,0.2-0.5,0.5-0.5c0.3,0,0.5,0.2,0.5,0.5C34,66.8,33.8,67.1,33.5,67.1z"/><path d="M40.2,68.1c-0.7,0-1.3,0.6-1.3,1.3s0.6,1.3,1.3,1.3s1.3-0.6,1.3-1.3S40.9,68.1,40.2,68.1z M40.2,70c-0.3,0-0.5-0.2-0.5-0.5   s0.2-0.5,0.5-0.5c0.3,0,0.5,0.2,0.5,0.5S40.5,70,40.2,70z"/><path d="M33.5,69.1c-0.7,0-1.3,0.6-1.3,1.3s0.6,1.3,1.3,1.3s1.3-0.6,1.3-1.3S34.2,69.1,33.5,69.1z M33.5,70.9   c-0.3,0-0.5-0.2-0.5-0.5s0.2-0.5,0.5-0.5c0.3,0,0.5,0.2,0.5,0.5S33.8,70.9,33.5,70.9z"/><path d="M83.8,57c0.3-0.2,0.5-0.4,0.7-0.7c0.5-0.7,1-1.8,0.5-3.7c-1-3.7-3.4-4.5-4.2-4.7l-2.8-8.7c0,0,0,0,0,0c0,0,0,0,0-0.1   c0,0,0,0,0-0.1c0,0,0,0-0.1,0c0,0,0,0,0,0c0,0,0,0,0,0c0,0,0,0,0,0l-3.1-0.9c-0.1,0-0.2,0-0.3,0c-0.8,0.3-1.6,0.7-2.6,1L70.7,39   c-0.9-0.8-2.1-1.3-2.8-1.6c1.9-1.5,3.3-3.4,4.1-5.7c0.2,0,0.4,0,0.5,0c0.8-0.1,1.5-0.5,2-1.2c0.5-0.7,0.7-1.5,0.6-2.4   c-0.2-1.6-1.4-2.9-2.8-2.9c0.3-2.5,0.9-13.7-10.3-15.2c0,0-0.1,0-0.1,0c-0.1-0.4-0.3-0.8-0.7-1c-1-0.6-2.2-0.7-3.5-0.2   C57.4,9,57.2,9,56.9,9c-2,0-2.8-3.7-2.8-3.7C54.1,5.1,54,5,53.8,5c-0.2,0-0.3,0.1-0.4,0.2c-1.3,3-0.8,4.7-0.2,5.6   C45,13.9,45,23,45.7,28.2c0,1.4,0.1,2.8,0.5,4.1c0.6,2.2,1.6,3.9,3,5.3c-0.7,0.3-0.8,0.3-1.1,0.5l-0.1,0c-0.6,0.1-4,0.8-5.9,4.3   l-0.6,1.3c-7.3-5.5-13-7.6-13.1-7.6c-0.2-0.1-0.3,0-0.4,0.1c-0.1,0.1-0.1,0.3,0,0.4l1,1.8l-2.2-1.3c-0.1-0.1-0.3-0.1-0.4,0   l-3.2,2.2l-0.5-0.3c-0.1-0.1-0.3-0.1-0.5,0.1c-0.1,0.1-0.1,0.3-0.1,0.5l4,7.4c-0.4,0.1-0.9,0.3-1.3,0.8c-0.6,0.8-0.8,2-0.4,3.6   c0.7,3.1,2.8,3.4,3.7,3.4c0,0,0,0,0,0c0.7,0,1.3-0.2,1.8-0.4l2.3,3.5c0,0,0.1,0.1,0.1,0.1l5.5,3.6c-0.4,0.1-0.9,0.3-1.4,0.5   c-0.8,0.3-1.6,0.5-2.3,0.7c-2.6,0.7-6.2,1.9-7.2,2.2l-3.7,0.8c-0.3,0.1-0.5,0.2-0.6,0.4c-0.6-2.6-1.9-4.5-3.5-5.2   c-0.8-0.4-1.7-0.4-2.4,0c-2.3,1.3-2.1,2.9-1.6,6.7c0.1,0.9,0.3,1.8,0.4,3c0.5,3.9,1.9,5.3,3,5.8c0.4,0.2,0.9,0.3,1.3,0.3   c0.7,0,1.4-0.3,1.8-0.6c1.1-0.7,2.3-0.8,2.9-0.8c0.2,0.5,0.7,0.9,1.2,0.9c0.1,0,0.3,0,0.4-0.1l4.7-1.4c0,0,0,0,0,0c0,0,0,0,0,0   c0.4-0.1,0.9-0.3,1.3-0.5c2-0.7,4.4-1.5,6.1-1.8c5.1-0.8,7.6-0.9,14.7-0.8l1.7,1.1c0,0,0,0,0,0c0,0,0,0,0.1,0c0,0,0.1,0,0.1,0   c0.1,0,0.1,0,0.2,0c0,0,0,0,0,0l1.8-0.9c4.2,1.1,5.3,4.2,7,8.9c0.8,2.2,1.6,4.6,2.9,7.4l0.9,3.2c0.2,0.7,0.6,1.2,1,1.5   c0.1,0.1,0.3,0.1,0.4,0.1c0.1,0.3,0.3,0.6,0.5,0.8c0.6,0.8,1.3,1.2,2.2,1.2c0,0,0.1,0,0.1,0c3.3-0.1,7.4-3.5,8.5-8.9   c0.2-0.4,0.9-2.3-2.1-4.5c0,0-0.7-0.6-1.8-0.6c0,0-0.1,0-0.1,0c0,0,0,0,0-0.1c-0.3-2.1-0.7-4.5-1.2-6.8c-0.6-3.2-1.6-6.4-2.3-8.3   l12-4.4c0.2-0.1,0.3-0.3,0.2-0.5L83.8,57z M81.1,48.8c0.9,0.3,2.4,1.2,3.1,4c0.3,1.3,0.2,2.3-0.4,3c-0.6,0.8-1.7,1.1-2.3,1.1   c-0.3,0-0.6-0.1-0.8-0.2c-0.4-0.3-0.9-1-0.9-2.2c0-0.9,0.2-2.5,1.6-4.4c0,0,0,0,0,0c0,0,0-0.1,0-0.1c0,0,0,0,0,0c0-0.1,0-0.1,0-0.2   L81.1,48.8z M74.7,38.9l1.8,0.5L50,48.9c4.2-3.3,10.8-5.4,16.7-7.2c1.9-0.6,3.8-1.2,5.4-1.8c0,0,0,0,0,0   C73,39.6,73.9,39.2,74.7,38.9z M56.8,71.1c-0.1,0-0.3,0.1-0.4,0.2L55.1,72L44.8,51.7l3.2-1.3l10.1,20L56.8,71.1z M53.7,6.6   c0.5,1.3,1.4,3.2,3.2,3.2c0,0,0,0,0,0c0.3,0,0.6-0.1,1-0.2c1.1-0.4,2-0.4,2.8,0.1c0.2,0.1,0.4,0.4,0.4,0.7c0,0.3-0.1,0.6-0.4,0.7   c-0.3,0.2-0.7,0.4-1.1,0.5c-0.8,0.2-1.6,0.3-2.4,0.3c-1.6,0-2.8-0.5-3.4-1.4C53.2,9.5,53.2,8.2,53.7,6.6z M46.9,32.1   c-0.3-1.3-0.5-2.6-0.4-3.9c0,0,0,0,0-0.1c-0.7-5-0.7-13.8,7.1-16.6c0.1,0,0.1,0,0.1-0.1c0.8,0.8,2,1.2,3.6,1.2   c0.8,0,1.7-0.1,2.6-0.4c0.5-0.1,0.9-0.3,1.3-0.6c0.3-0.2,0.6-0.5,0.7-0.9c0,0,0,0,0,0c10.7,1.4,9.9,12.3,9.6,14.4c0,0,0,0.1,0,0.1   l0.1,0.3c0,0.2,0.2,0.3,0.4,0.3c1.2-0.1,2.2,0.9,2.3,2.3c0.1,0.7-0.1,1.3-0.4,1.9C73.5,30.7,73,31,72.4,31c-0.2,0-0.4,0-0.6,0   c-0.2,0-0.4,0.1-0.5,0.3c-1.1,3.9-4.3,6.7-8.8,7.9C56.6,40.7,48.9,39.8,46.9,32.1z M57.6,40.6c1.6,0,3.3-0.2,5.1-0.7   c1.6-0.4,3.1-1.1,4.4-1.9c0.4,0.1,2.2,0.6,3.2,1.7c0,0,0,0,0,0c0,0,0,0,0,0c-1.2,0.4-2.5,0.8-3.9,1.3c-6.6,2.1-14,4.4-18.2,8.5   c-0.8-0.8-1.6-1.6-2.5-2.3c0.8-3.7,2.5-7.7,2.8-8.4l0,0c0.3-0.2,0.3-0.2,1.2-0.5c0.1,0,0.1-0.1,0.1-0.1   C51.9,39.7,54.5,40.6,57.6,40.6z M42.8,42.8c1.4-2.5,3.6-3.4,4.7-3.7c-0.6,1.3-1.8,4.4-2.5,7.5c-1-0.9-1.9-1.6-2.9-2.4L42.8,42.8z    M29.2,37.2c2.4,1,9,4.2,16.3,10.8l-15.2-8.8L29.2,37.2z M26.6,37.9l20.7,12l-3,1.2L23.9,39.7L26.6,37.9z M28.1,54   c-0.9,0-2.4-0.4-2.9-2.8c-0.3-1.4-0.2-2.4,0.3-3c0.4-0.5,0.9-0.6,1.2-0.6c2,1.2,2.9,2.4,3.3,3.2c0.5,1,0.4,1.9,0.1,2.3   c-0.1,0.1-0.1,0.2-0.3,0.3c0,0,0,0,0,0c0,0,0,0,0,0C29.5,53.8,28.8,54,28.1,54L28.1,54z M30.6,53.9c0.1-0.1,0.2-0.2,0.2-0.3   c0.4-0.8,0.4-1.9-0.1-3c-0.4-0.9-1.4-2.3-3.6-3.6l-3.6-6.6L44,51.8l9.9,19.6l-0.5-0.3c0-0.1-0.1-0.1-0.2-0.1L32.8,57.4L30.6,53.9z    M41.7,64.5c0,0.3-0.2,0.5-0.5,0.5s-0.5-0.2-0.5-0.5c0-0.3,0.2-0.5,0.5-0.5S41.7,64.2,41.7,64.5z M21.3,75.5   c-0.5,0.4-1.4,0.6-2.3,0.2c-0.9-0.4-2.1-1.6-2.6-5.2c-0.1-1.1-0.3-2.1-0.4-3c-0.5-3.7-0.7-4.8,1.2-5.9c0.5-0.3,1.1-0.3,1.7,0   c1.2,0.5,2.6,2.3,3.2,5.5c0,0.1,0.1,0.2,0.2,0.3c0,0.1,0.1,0.2,0.1,0.3c0.7,1.3,1.8,3.9,2.1,6.8C23.7,74.5,22.4,74.7,21.3,75.5z    M25.9,75.4c-0.3,0.1-0.7-0.2-0.7-0.5c-0.3-3.1-1.5-6-2.3-7.5c-0.1-0.2-0.1-0.3,0-0.5c0.1-0.2,0.2-0.3,0.4-0.3l3.6-0.8   c1.6,1,2.9,6,3.3,8.3L25.9,75.4z M38.2,71.7c-1.8,0.3-4.3,1.1-6.3,1.8c-0.3,0.1-0.6,0.2-0.9,0.3c-0.3-1.6-1.4-6.5-3.2-8.3   c1.5-0.5,4.4-1.4,6.5-2c0.7-0.2,1.6-0.5,2.4-0.8c0.7-0.2,1.4-0.5,2-0.6l1.8,1.2c-0.4,0.2-0.6,0.6-0.6,1.1c0,0.7,0.6,1.3,1.3,1.3   c0.7,0,1.2-0.5,1.3-1.1l9.4,6.2C45.5,70.8,43,71,38.2,71.7z M68.3,91.2L67.5,88c0,0-0.1-1.9,3.6-3c-1.4,2.2-2.6,4.8-2.3,7   C68.6,91.8,68.5,91.6,68.3,91.2z M77.6,82.2c2.8,2.1,2,3.5,1.9,3.6c0,0,0,0.1-0.1,0.1c-1,5.1-4.7,8.3-7.8,8.4l-0.1,0.4v-0.4   c-0.6,0-1.1-0.3-1.6-0.9c-1.9-2.4,0.9-7.3,3.1-9.8c1-1.2,2.1-1.8,3.1-1.8C77.1,81.7,77.6,82.1,77.6,82.2z M74.3,74.2   c0.4,2.3,0.8,4.7,1.2,6.8c0,0,0,0,0,0c-0.9,0.2-1.9,0.9-2.8,2c-0.3,0.3-0.6,0.7-0.8,1c-3.1,0.7-4.3,1.9-4.8,2.8   c-1.1-2.3-1.8-4.5-2.5-6.4c-1.6-4.5-2.7-7.8-6.7-9.1l0.9-0.5L72,66.1C72.7,67.9,73.7,71,74.3,74.2z M72.1,65.2   C72.1,65.2,72.1,65.2,72.1,65.2C72.1,65.2,72.1,65.2,72.1,65.2l-13.3,4.9L53.7,60l-5-9.8l28.8-10.3l2.7,8.5c0,0,0,0,0,0l0.5,1.5   c-1.4,2.1-1.6,3.7-1.6,4.7c0,1.2,0.5,2.2,1.3,2.8c0.3,0.2,0.7,0.3,1.2,0.3c0.5,0,1-0.1,1.5-0.3l1.1,3.4L72.1,65.2z"/></g><text x="0" y="115" fill="#000000" font-size="5px" font-weight="bold" font-family="'Helvetica Neue', Helvetica, Arial-Unicode, Arial, Sans-serif">Created by parkjisun</text><text x="0" y="120" fill="#000000" font-size="5px" font-weight="bold" font-family="'Helvetica Neue', Helvetica, Arial-Unicode, Arial, Sans-serif">from the Noun Project</text></svg>